<?xml version="1.0" encoding="utf-8"?>
<!-- Generator: Adobe Illustrator 16.0.0, SVG Export Plug-In . SVG Version: 6.00 Build 0)  -->
<!DOCTYPE svg PUBLIC "-//W3C//DTD SVG 1.1//EN" "http://www.w3.org/Graphics/SVG/1.1/DTD/svg11.dtd">
<svg version="1.1"
	 id="svg2" xmlns:dc="http://purl.org/dc/elements/1.1/" xmlns:cc="http://creativecommons.org/ns#" xmlns:rdf="http://www.w3.org/1999/02/22-rdf-syntax-ns#" xmlns:svg="http://www.w3.org/2000/svg" xmlns:sodipodi="http://sodipodi.sourceforge.net/DTD/sodipodi-0.dtd" xmlns:inkscape="http://www.inkscape.org/namespaces/inkscape" inkscape:version="0.91 r13725" sodipodi:docname="icon.svg"
	 xmlns="http://www.w3.org/2000/svg" xmlns:xlink="http://www.w3.org/1999/xlink" x="0px" y="0px" width="256px" height="256px"
	 viewBox="0 0 256 256" enable-background="new 0 0 256 256" xml:space="preserve">
<sodipodi:namedview  units="px" id="base" pagecolor="#ffffff" bordercolor="#666666" borderopacity="1.0" inkscape:zoom="2" inkscape:cx="128.67449" inkscape:cy="155.48192" showgrid="false" inkscape:pageshadow="2" inkscape:pageopacity="0.0" inkscape:document-units="px" inkscape:current-layer="layer2">
	</sodipodi:namedview>
<g id="layer1" transform="translate(0,-796.36216)" inkscape:label="Layer 1" inkscape:groupmode="layer" display="none">
</g>
<path id="path4189" inkscape:connector-curvature="0" sodipodi:nodetypes="cssssccc" fill="#FF4119" d="M60.18,11.536
	c0,0-59.017,71.53-25.174,156.35c33.842,84.819,130.479,60.822,140.51,56.976c7.817-3,4.488-11.969-3.752-9.778
	c-8.617,2.289-67.854,14.086-93.904-30.442c-26.05-44.527,30.415-71.395,65.483-27.568c2.126-27.006-9.747-56.943-9.747-56.943
	L60.18,11.536z"/>
<g id="path4176" inkscape:connector-curvature="0" sodipodi:nodetypes="cccccccc">
	
		<image overflow="visible" opacity="0.75" width="202" height="176" xlink:href="3DA291A2.png"  transform="matrix(1 0 0 1 44.5 -3.5)">
	</image>
	<g>
		<g>
			<g>
				<polygon points="73.064,21.495 142.238,142.551 156.625,104.695 204.443,136.559 222.43,109.325 175.591,79.026 209.02,58.21 
									"/>
				<polygon fill="none" stroke="#FFFFFF" stroke-width="12.5095" stroke-linecap="round" points="73.064,21.495 142.238,142.551 
					156.625,104.695 204.443,136.559 222.43,109.325 175.591,79.026 209.02,58.21 				"/>
			</g>
		</g>
	</g>
</g>
<g>
	
		<image overflow="visible" opacity="0.75" width="247" height="99" xlink:href="3DA291A6.png"  transform="matrix(1 0 0 1 4.5 156.5)">
	</image>
	<g>
		<g>
			<path fill="#AAAAAA" d="M86.896,229.715c0,5.448-4.417,9.867-9.867,9.867H29.621c-5.449,0-9.866-4.419-9.866-9.867v-47.409
				c0-5.448,4.417-9.867,9.866-9.867H77.03c5.448,0,9.867,4.419,9.867,9.867V229.715z"/>
			<path fill="#EEEEEE" d="M81.113,221.755c0,4.509-3.656,8.165-8.166,8.165H33.705c-4.509,0-8.167-3.656-8.167-8.165v-39.242
				c0-4.511,3.656-8.165,8.167-8.165h39.242c4.509,0,8.166,3.654,8.166,8.165V221.755z"/>
			<path fill="#AAAAAA" d="M161.349,229.395c0,5.373-4.359,9.732-9.732,9.732h-46.769c-5.374,0-9.732-4.359-9.732-9.732v-46.769
				c0-5.373,4.357-9.732,9.732-9.732h46.769c5.373,0,9.732,4.359,9.732,9.732V229.395z"/>
			<path fill="#EEEEEE" d="M155.644,221.555c0,4.448-3.607,8.056-8.055,8.056h-38.711c-4.449,0-8.056-3.607-8.056-8.056v-38.71
				c0-4.45,3.606-8.056,8.056-8.056h38.711c4.447,0,8.055,3.605,8.055,8.056V221.555z"/>
			<path fill="#AAAAAA" d="M236.293,229.396c0,5.373-4.358,9.731-9.732,9.731h-46.768c-5.376,0-9.731-4.358-9.731-9.731v-46.77
				c0-5.373,4.355-9.732,9.731-9.732h46.768c5.374,0,9.732,4.359,9.732,9.732V229.396z"/>
			<path fill="#EEEEEE" d="M230.585,221.556c0,4.447-3.605,8.055-8.054,8.055h-38.709c-4.45,0-8.058-3.607-8.058-8.055v-38.711
				c0-4.45,3.607-8.056,8.058-8.056h38.709c4.448,0,8.054,3.605,8.054,8.056V221.556z"/>
		</g>
	</g>
</g>
</svg>
